<?xml version="1.0" ?><!DOCTYPE svg  PUBLIC '-//W3C//DTD SVG 1.1//EN'  'http://www.w3.org/Graphics/SVG/1.1/DTD/svg11.dtd'><svg enable-background="new 0 0 128 128" id="Слой_1" version="1.1" viewBox="0 0 128 128" xml:space="preserve" xmlns="http://www.w3.org/2000/svg" xmlns:xlink="http://www.w3.org/1999/xlink"><g><path d="M64,113.5c27.3,0,49.5-22.2,49.5-49.5S91.3,14.5,64,14.5S14.5,36.7,14.5,64S36.7,113.5,64,113.5z M64,18.5   c25.1,0,45.5,20.4,45.5,45.5S89.1,109.5,64,109.5S18.5,89.1,18.5,64S38.9,18.5,64,18.5z" fill="#3857E8"/><path d="M64,126c34.2,0,62-27.8,62-62S98.2,2,64,2S2,29.8,2,64S29.8,126,64,126z M64,6c32,0,58,26,58,58   s-26,58-58,58S6,96,6,64S32,6,64,6z" fill="#3857E8"/><rect fill="#3857E8" height="3.2" width="4" x="62" y="24.4"/><rect fill="#3857E8" height="4" width="3.2" x="100.4" y="62"/><rect fill="#3857E8" height="3.2" width="4" x="62" y="100.4"/><rect fill="#3857E8" height="4" width="3.2" x="24.4" y="62"/><polygon fill="#3857E8" points="62,71.9 66,71.9 66,66 84.6,66 84.6,62 66,62 66,33.4 62,33.4 62,62 56.1,62 56.1,66 62,66  "/></g></svg>